# xmcd
#
# Track frame offsets:
#	150
#	17347
#	32385
#	49440
#	65280
#	82105
#	100580
#	117880
#	135417
#	154655
#	179277
#	197427
#	218792
#	238180
#	253992
#	271490
#	290700
#	308727
#	329142
#
# Disc length: 4680 seconds
#
# Revision: 6
# Processed by: cddbd v1.5.2PL0 Copyright (c) Steve Scherf et al.
# Submitted via: audiograbber 1.83.01
#
DISCID=11124613
DTITLE=Various Artist - The Best Disco In Town  [CD1)
DYEAR=1994
DGENRE=Oldies
TTITLE0=Van McCoy and The Soul City Symphony - The Hustle
TTITLE1=Santa Esmeralda - Don't Let Me Be Misunderstood
TTITLE2=Ritchie Family - Brazil
TTITLE3=Arpeggio - Love And Desire
TTITLE4=Silver Convention - Fly Robin Fly
TTITLE5=Kongas - Africanism
TTITLE6=Carol Douglas - Doctor's Orders
TTITLE7=Bazuka - Dynomite
TTITLE8=Celi Bee and Buzzy Bunch - Superman
TTITLE9=George Kranz - Din Daa Daa
TTITLE10=Frankie Smith - Double Dutch Bus
TTITLE11=Eartha Kitt - Where Is My Man
TTITLE12=Julius Brown - Party
TTITLE13=Disco Tex and His Sex-O-Lettes - Get Dancin'
TTITLE14=Sylvia - Pillow Talk
TTITLE15=Cheri - Murphy's Law
TTITLE16=Queen Samantha - The Letter
TTITLE17=Tony Valor Orchestra - Love Has Come My Way
TTITLE18=Phyllis Nelson - Don't Stop The Train
EXTD=
EXTT0=
EXTT1=
EXTT2=
EXTT3=
EXTT4=
EXTT5=
EXTT6=
EXTT7=
EXTT8=
EXTT9=
EXTT10=
EXTT11=
EXTT12=
EXTT13=
EXTT14=
EXTT15=
EXTT16=
EXTT17=
EXTT18=
PLAYORDER=
